<svg width="440" height="414" viewBox="0 0 440 414" fill="none" xmlns="http://www.w3.org/2000/svg">
<g clip-path="url(#clip0_424_11187)">
<path d="M319.442 234.928V349.293L338.587 380.469L340.044 382.84H415.583L417.109 234.928H319.442Z" fill="#EBEFF2"/>
<path opacity="0.1" d="M319.442 234.928V349.293L338.587 380.469L339.762 234.928H319.442Z" fill="black"/>
<path d="M137.079 231.878V346.243L117.935 377.419L116.478 379.79H40.9383L39.412 231.878H137.079Z" fill="#EBEFF2"/>
<path opacity="0.1" d="M137.079 231.878V346.243L117.935 377.419L116.76 231.878H137.079Z" fill="black"/>
<path d="M440 229.591V236.453H29.4927V226.541L67.6438 206.718H406.427L440 229.591Z" fill="#EBEFF2"/>
<path opacity="0.1" d="M440 229.591V236.453H29.4927V226.541L440 229.591Z" fill="black"/>
<path d="M88.2458 263.9H69.9328L62.3026 258.564H96.6389L88.2458 263.9Z" fill="#4C5862"/>
<path d="M88.2458 286.011H69.9328L62.3026 280.674H96.6389L88.2458 286.011Z" fill="#4C5862"/>
<path d="M88.2458 317.271H69.9328L62.3026 311.934H96.6389L88.2458 317.271Z" fill="#4C5862"/>
<path d="M88.2458 348.531H69.9328L62.3026 343.194H96.6389L88.2458 348.531Z" fill="#4C5862"/>
<path d="M368.276 266.95H386.589L394.219 261.613H359.882L368.276 266.95Z" fill="#4C5862"/>
<path d="M368.276 289.061H386.589L394.219 283.724H359.882L368.276 289.061Z" fill="#4C5862"/>
<path d="M368.276 320.321H386.589L394.219 314.984H359.882L368.276 320.321Z" fill="#4C5862"/>
<path d="M368.276 351.58H386.589L394.219 346.243H359.882L368.276 351.58Z" fill="#4C5862"/>
<path d="M380.746 74.4665H226.579C225.814 74.4664 225.056 74.617 224.348 74.9097C223.641 75.2025 222.998 75.6316 222.456 76.1726C221.915 76.7136 221.486 77.3559 221.193 78.0628C220.9 78.7696 220.749 79.5272 220.749 80.2923V184.063C220.749 184.828 220.9 185.585 221.193 186.292C221.486 186.999 221.915 187.641 222.456 188.182C222.998 188.723 223.641 189.152 224.348 189.445C225.056 189.738 225.814 189.889 226.579 189.888H285.102L282.91 203.876C282.91 203.876 270.38 210.527 279.19 210.723C288 210.919 329.506 210.723 329.506 210.723C329.506 210.723 337.533 210.723 324.807 203.68L322.745 189.888H380.746C381.512 189.889 382.27 189.738 382.978 189.445C383.685 189.152 384.328 188.723 384.869 188.182C385.411 187.641 385.84 186.999 386.133 186.292C386.426 185.585 386.577 184.828 386.577 184.063V80.2923C386.577 79.5272 386.426 78.7696 386.133 78.0628C385.84 77.3559 385.411 76.7136 384.869 76.1726C384.328 75.6316 383.685 75.2025 382.978 74.9097C382.27 74.617 381.512 74.4664 380.746 74.4665Z" fill="#4C5862"/>
<path d="M380.997 80.6288H226.329V167.097H380.997V80.6288Z" fill="white"/>
<path d="M303.663 78.8681C304.203 78.8681 304.642 78.4302 304.642 77.89C304.642 77.3498 304.203 76.9118 303.663 76.9118C303.122 76.9118 302.684 77.3498 302.684 77.89C302.684 78.4302 303.122 78.8681 303.663 78.8681Z" fill="#F2F2F2"/>
<path d="M303.663 185.682C305.717 185.682 307.383 184.018 307.383 181.965C307.383 179.913 305.717 178.248 303.663 178.248C301.608 178.248 299.943 179.913 299.943 181.965C299.943 184.018 301.608 185.682 303.663 185.682Z" fill="#F2F2F2"/>
<path d="M297.866 221.287V223.244H192.535V221.678L192.68 221.287L195.276 214.245H295.713L297.866 221.287Z" fill="#4C5862"/>
<path d="M338.401 219.372C338.209 220.192 337.485 221.056 335.848 221.874C329.974 224.808 318.032 221.091 318.032 221.091C318.032 221.091 308.83 219.526 308.83 215.418C309.088 215.241 309.358 215.081 309.636 214.939C312.106 213.633 320.293 210.412 334.811 215.075C335.881 215.411 336.836 216.036 337.571 216.882C337.896 217.202 338.141 217.595 338.285 218.027C338.43 218.46 338.469 218.921 338.401 219.372Z" fill="#4C5862"/>
<path opacity="0.1" d="M338.401 219.372C331.212 222.124 324.804 222.33 318.227 217.766C315.741 215.929 312.729 214.938 309.636 214.939C312.106 213.633 320.293 210.412 334.811 215.075C335.881 215.411 336.836 216.036 337.571 216.882C337.896 217.202 338.141 217.595 338.285 218.027C338.43 218.46 338.469 218.921 338.401 219.372Z" fill="black"/>
<path d="M329.387 217.766C330.793 217.766 331.932 217.415 331.932 216.983C331.932 216.551 330.793 216.201 329.387 216.201C327.981 216.201 326.842 216.551 326.842 216.983C326.842 217.415 327.981 217.766 329.387 217.766Z" fill="#F2F2F2"/>
<path opacity="0.1" d="M297.866 221.287V223.244H192.535V221.678L192.68 221.287H297.866Z" fill="black"/>
<path d="M58.5655 9.09362e-05C57.4965 -0.0876098 56.426 0.151329 55.496 0.685245C54.5828 1.31012 54.0073 2.40485 53.4198 3.42356C51.1735 7.36498 48.1326 10.7973 44.4895 13.5031C41.8361 15.4455 38.4625 17.8674 38.9165 21.4487C39.156 22.6314 39.5933 23.7653 40.2099 24.8028C42.6578 29.7404 49.3377 33.5561 48.6807 39.1903C51.1127 35.1219 47.8597 33.1102 50.2917 29.0419C51.4499 27.1045 53.4619 24.9175 55.2106 26.1342C55.7961 26.5416 56.1805 27.2723 56.7902 27.6297C58.2448 28.4827 59.7924 26.852 61.08 25.697C65.5202 21.7142 71.8346 22.7576 77.36 23.9986C79.9685 24.5844 82.8336 25.353 84.3757 27.8442C86.4031 31.1196 82.4494 34.657 81.4505 38.3602C81.3689 38.6757 81.3651 39.0063 81.4393 39.3236C81.5134 39.641 81.6634 39.9357 81.8764 40.1825C82.0894 40.4293 82.3591 40.6208 82.6623 40.7408C82.9655 40.8608 83.2934 40.9056 83.6177 40.8714C85.2756 40.708 87.2396 40.574 87.3377 39.8471C89.4236 39.9212 91.9795 39.6852 92.8732 37.5149C93.1464 36.6562 93.2908 35.7618 93.3017 34.8608C93.6297 31.2152 95.1782 27.8892 96.204 24.4194C97.2299 20.9496 97.6759 16.8832 95.9448 13.8068C95.3269 12.7833 94.5628 11.8553 93.6767 11.0524C83.8526 1.55262 70.9361 -0.0140103 58.5655 9.09362e-05Z" fill="#192A3E"/>
<path d="M50.8172 46.3066C50.8172 46.3066 52.9537 64.0975 45.1197 65.5208C37.2856 66.9441 52.2415 91.1397 52.2415 91.1397L87.851 95.4095L79.3047 66.9441C79.3047 66.9441 73.6072 64.8092 77.1682 50.5764C80.7291 36.3437 50.8172 46.3066 50.8172 46.3066Z" fill="#FFB8B8"/>
<path d="M29.0954 351.954L31.9444 391.095H46.8999L42.6272 351.954H29.0954Z" fill="#FFB8B8"/>
<path d="M138.772 277.944L140.909 310.679L157.29 303.563L150.879 276.521L138.772 277.944Z" fill="#FFB8B8"/>
<path d="M18.4126 202.511C18.4126 202.511 19.1248 243.786 23.3979 257.307C27.6711 270.828 26.9589 271.539 26.2467 273.674C25.5345 275.809 24.8223 274.386 24.8223 277.944C24.8223 281.502 23.3979 337.722 24.8223 342.703C26.2467 347.685 20.5492 356.224 24.8223 356.936C29.0954 357.647 49.0367 356.936 49.7489 352.666C50.4611 348.396 44.0514 346.973 46.9002 344.126C49.7489 341.28 54.0221 282.926 54.0221 282.926L63.9927 242.362L82.5096 221.013H121.68L133.787 267.981C133.787 267.981 128.802 281.502 132.363 281.502C135.924 281.502 157.289 285.772 157.289 270.116C157.289 254.46 150.168 208.204 148.743 206.781C147.319 205.357 149.455 200.376 147.319 198.241C145.182 196.106 120.256 181.162 110.997 178.315C101.739 175.469 88.7507 172.081 88.7507 172.081L18.4126 202.511Z" fill="#192A3E"/>
<path d="M157.289 297.87C157.289 297.87 146.607 294.312 141.621 304.986C136.636 315.661 138.773 318.507 138.773 318.507C138.773 318.507 155.153 324.201 158.002 321.354C159.241 320.116 163.177 319.685 167.228 319.594C173.398 319.456 175.04 310.734 169.212 308.702C169.038 308.642 168.862 308.589 168.684 308.545C162.987 307.121 157.289 297.87 157.289 297.87Z" fill="#192A3E"/>
<path d="M66.8415 58.0486C78.6414 58.0486 88.2072 48.4903 88.2072 36.6996C88.2072 24.9088 78.6414 15.3505 66.8415 15.3505C55.0416 15.3505 45.4758 24.9088 45.4758 36.6996C45.4758 48.4903 55.0416 58.0486 66.8415 58.0486Z" fill="#FFB8B8"/>
<path d="M39.0661 74.4163C39.0661 74.4163 73.9634 81.5326 82.5096 70.1464C91.0559 58.7603 94.6168 102.17 94.6168 102.17L98.89 147.715L92.4803 172.622C92.4803 172.622 59.0074 199.664 48.3246 201.799C37.6418 203.934 21.2614 205.357 21.2614 205.357C21.2614 205.357 26.2468 126.366 26.2468 124.942C26.2468 123.519 39.0661 74.4163 39.0661 74.4163Z" fill="#109CF1"/>
<path d="M49.6792 61.0698C49.6792 61.0698 41.9149 56.6254 39.7784 60.8952C37.6418 65.165 17.7005 75.8395 15.5639 75.8395C13.4274 75.8395 19.8371 134.905 16.9883 142.022C14.1396 149.138 0.607979 201.087 8.44205 205.357C16.2761 209.627 10.5786 201.087 18.4127 211.762C26.2468 222.437 64.7049 222.437 66.8415 218.167C68.9781 213.897 49.749 181.873 53.3099 151.985C56.8709 122.096 62.5684 80.821 57.5831 75.1279C52.5978 69.4348 49.6792 61.0698 49.6792 61.0698Z" fill="#192A3E"/>
<path d="M75.3877 65.8766L76.3797 62.4654C76.3797 62.4654 106.012 72.2814 107.436 78.6861C108.861 85.0908 108.148 129.924 103.163 133.482C98.1777 137.04 91.0558 142.733 96.0412 151.273C101.026 159.813 106.724 169.064 110.997 169.776C115.27 170.487 123.104 175.469 120.968 180.45C118.831 185.431 93.1924 176.18 93.1924 176.18C93.1924 176.18 76.0999 163.371 76.8121 143.445C77.5243 123.519 75.3877 65.8766 75.3877 65.8766Z" fill="#192A3E"/>
<path d="M100.314 149.85L83.2218 181.873C83.2218 181.873 58.2952 207.492 72.539 210.339C86.7828 213.185 94.6168 186.855 94.6168 186.855L113.134 160.524L100.314 149.85Z" fill="#FFB8B8"/>
<path d="M59.6062 5.58603C58.745 5.52226 57.8824 5.68944 57.1075 6.07029C56.4069 6.58158 55.8295 7.24283 55.4174 8.00571C53.5178 10.8609 51.0416 13.2876 48.1478 15.1299C45.9878 16.5028 43.2416 18.2145 43.6111 20.7458C43.8118 21.5944 44.1688 22.3984 44.664 23.1164C46.6636 26.6415 47.4596 30.7215 46.9316 34.739L52.871 26.1126C53.8139 24.7433 55.4517 23.1975 56.8752 24.0575C57.3518 24.3454 57.6648 24.8618 58.1611 25.1145C59.3452 25.7174 60.605 24.5648 61.6532 23.7485C65.2677 20.9334 70.4079 21.6709 74.9058 22.548C77.0292 22.9621 79.3615 23.5053 80.6168 25.2661C82.7028 28.1921 80.5246 32.42 81.7421 35.8003C82.0829 35.5619 82.3723 35.2575 82.5932 34.9052C82.8141 34.553 82.962 34.16 83.028 33.7496C84.7261 33.802 86.8066 33.6352 87.5342 32.1012C87.7555 31.5001 87.8734 30.8658 87.883 30.2253C88.15 27.6486 89.4105 25.2979 90.2456 22.8454C91.0807 20.393 91.4438 17.5189 90.0345 15.3445C89.519 14.6078 88.8968 13.9517 88.1882 13.3977C80.191 6.68334 69.6764 5.57606 59.6062 5.58603Z" fill="#192A3E"/>
<path d="M100.314 75.8395L106.95 77.5995C106.95 77.5995 122.392 117.114 118.831 144.157C115.27 171.199 113.134 165.506 113.134 165.506C113.134 165.506 107.436 152.696 94.6168 155.543L100.314 75.8395Z" fill="#192A3E"/>
<path d="M30.0822 385.922C28.3648 388.254 28.7091 391.587 27.1878 394.051C25.8691 396.187 23.3839 397.307 21.7345 399.2C21.2082 399.829 20.739 400.504 20.3325 401.216C18.8024 403.776 17.5587 407.059 19.0656 409.633C20.2779 411.704 22.8259 412.514 25.1628 413.066C28.1164 413.763 31.1852 414.321 34.173 413.788C37.1607 413.255 40.0807 411.427 41.146 408.587C41.3553 407.873 41.6042 407.172 41.8915 406.485C43.5109 403.3 48.5903 403.265 50.2476 400.099C51.4075 397.883 50.3413 395.205 49.2756 392.943L46.0206 386.033C44.9405 383.74 40.5616 385.059 38.2788 384.509C35.3015 383.793 32.224 383.003 30.0822 385.922Z" fill="#192A3E"/>
<path d="M6.30542 164.082L36.2174 210.339C36.2174 210.339 54.7342 233.823 60.4318 223.148C66.1293 212.474 40.4905 194.683 40.4905 194.683L21.2614 159.101L6.30542 164.082Z" fill="#FFB8B8"/>
<path d="M21.2614 77.2628L15.5639 75.8395C15.5639 75.8395 4.16885 79.3977 1.3201 94.3421C-1.52865 109.286 0.607908 169.064 4.16885 169.776C7.72979 170.487 21.7563 159.367 24.0015 161.725C26.2467 164.082 19.1248 151.985 21.2614 145.58C23.3979 139.175 21.2614 77.2628 21.2614 77.2628Z" fill="#192A3E"/>
<path d="M289.024 109.028H270.616V113.456H289.024V109.028Z" fill="#109CF1"/>
<path d="M352.767 109.028H346.291V113.456H352.767V109.028Z" fill="#109CF1"/>
<path d="M365.721 109.028H359.244V113.456H365.721V109.028Z" fill="#109CF1"/>
<path d="M339.473 109.028H295.5V113.456H339.473V109.028Z" fill="#109CF1"/>
<path d="M265.844 137.639H247.437V142.067H265.844V137.639Z" fill="#109CF1"/>
<path d="M329.588 137.639H323.111V142.067H329.588V137.639Z" fill="#109CF1"/>
<path d="M342.541 137.639H336.064V142.067H342.541V137.639Z" fill="#109CF1"/>
<path d="M316.294 137.639H272.321V142.067H316.294V137.639Z" fill="#109CF1"/>
<path d="M341.859 118.906H323.452V123.334H341.859V118.906Z" fill="#109CF1"/>
<path d="M366.743 118.906H348.336V123.334H366.743V118.906Z" fill="#109CF1"/>
<path d="M253.913 118.906H247.437V123.334H253.913V118.906Z" fill="#109CF1"/>
<path d="M266.867 118.906H260.39V123.334H266.867V118.906Z" fill="#109CF1"/>
<path d="M317.316 118.906H273.343V123.334H317.316V118.906Z" fill="#109CF1"/>
<path d="M303.681 128.443H285.274V132.871H303.681V128.443Z" fill="#109CF1"/>
<path d="M278.797 128.443H260.39V132.871H278.797V128.443Z" fill="#109CF1"/>
<path d="M253.913 128.443H247.437V132.871H253.913V128.443Z" fill="#109CF1"/>
<path d="M366.743 128.443H360.266V132.871H366.743V128.443Z" fill="#109CF1"/>
<path d="M353.79 128.443H309.817V132.871H353.79V128.443Z" fill="#109CF1"/>
</g>
<defs>
<clipPath id="clip0_424_11187">
<rect width="440" height="414" fill="white"/>
</clipPath>
</defs>
</svg>
