<svg width="20" height="20" viewBox="0 0 20 20" fill="none" xmlns="http://www.w3.org/2000/svg">
<g clip-path="url(#clip0_1_1289)">
<path d="M6.81111 6.11118C6.81111 4.34917 8.23799 2.92229 10 2.92229C11.762 2.92229 13.1889 4.34917 13.1889 6.11118C13.1889 7.87319 11.762 9.30007 10 9.30007C8.23799 9.30007 6.81111 7.87319 6.81111 6.11118ZM2.92222 14.8612C2.92222 14.4718 3.11175 14.0788 3.54722 13.6769C3.98745 13.2706 4.63072 12.9041 5.39798 12.5967C6.93363 11.9816 8.78959 11.6723 10 11.6723C11.2104 11.6723 13.0664 11.9816 14.602 12.5967C15.3693 12.9041 16.0126 13.2706 16.4528 13.6769C16.8883 14.0788 17.0778 14.4718 17.0778 14.8612V17.0778H2.92222V14.8612Z" stroke="#C2CFE0" stroke-width="1.4"/>
</g>
<defs>
<clipPath id="clip0_1_1289">
<rect width="20" height="20" fill="white"/>
</clipPath>
</defs>
</svg>
