<svg width="20" height="20" viewBox="0 0 20 20" fill="none" xmlns="http://www.w3.org/2000/svg">
<g clip-path="url(#clip0_1_1273)">
<path d="M5.00001 8.33337C4.08334 8.33337 3.33334 9.08337 3.33334 10C3.33334 10.9167 4.08334 11.6667 5.00001 11.6667C5.91667 11.6667 6.66667 10.9167 6.66667 10C6.66667 9.08337 5.91667 8.33337 5.00001 8.33337ZM15 8.33337C14.0833 8.33337 13.3333 9.08337 13.3333 10C13.3333 10.9167 14.0833 11.6667 15 11.6667C15.9167 11.6667 16.6667 10.9167 16.6667 10C16.6667 9.08337 15.9167 8.33337 15 8.33337ZM10 8.33337C9.08334 8.33337 8.33334 9.08337 8.33334 10C8.33334 10.9167 9.08334 11.6667 10 11.6667C10.9167 11.6667 11.6667 10.9167 11.6667 10C11.6667 9.08337 10.9167 8.33337 10 8.33337Z" fill="#C2CFE0"/>
</g>
<defs>
<clipPath id="clip0_1_1273">
<rect width="20" height="20" fill="white"/>
</clipPath>
</defs>
</svg>
