<svg viewBox="0 0 25 21" fill="none" xmlns="http://www.w3.org/2000/svg">
<path d="M24.3125 6.75781C24.3125 14.1406 13.3659 20.1165 12.8997 20.3633C12.7769 20.4294 12.6395 20.464 12.5 20.464C12.3605 20.464 12.2231 20.4294 12.1003 20.3633C11.6341 20.1165 0.6875 14.1406 0.6875 6.75781C0.689454 5.02415 1.37902 3.36204 2.60491 2.13616C3.83079 0.910267 5.4929 0.220704 7.22656 0.21875C9.40449 0.21875 11.3114 1.15531 12.5 2.7384C13.6886 1.15531 15.5955 0.21875 17.7734 0.21875C19.5071 0.220704 21.1692 0.910267 22.3951 2.13616C23.621 3.36204 24.3105 5.02415 24.3125 6.75781Z" fill="white"/>
</svg>
