<svg viewBox="0 0 24 24" fill="none" xmlns="http://www.w3.org/2000/svg">
<path d="M12.8248 0.675172L23.3248 11.1752C24.0598 11.9102 23.5395 13.1667 22.5 13.1667H21.3333V20.1667C21.3333 21.0949 20.9646 21.9852 20.3082 22.6415C19.6518 23.2979 18.7616 23.6667 17.8333 23.6667H16.6667V15.5C16.6667 14.6073 16.3256 13.7482 15.7132 13.0987C15.1007 12.4492 14.2632 12.0582 13.372 12.0058L13.1667 12H10.8333C9.90508 12 9.01484 12.3688 8.35846 13.0251C7.70209 13.6815 7.33334 14.5717 7.33334 15.5V23.6667H6.16667C5.23841 23.6667 4.34818 23.2979 3.6918 22.6415C3.03542 21.9852 2.66667 21.0949 2.66667 20.1667V13.1667H1.5C0.461671 13.1667 -0.0598287 11.9102 0.675171 11.1752L11.1752 0.675172C11.394 0.456455 11.6906 0.333588 12 0.333588C12.3094 0.333588 12.6061 0.456455 12.8248 0.675172ZM13.1667 14.3333C13.4761 14.3333 13.7728 14.4563 13.9916 14.675C14.2104 14.8938 14.3333 15.1906 14.3333 15.5V23.6667H9.66667V15.5C9.66671 15.2142 9.77162 14.9384 9.96151 14.7249C10.1514 14.5114 10.413 14.3749 10.6968 14.3415L10.8333 14.3333H13.1667Z" fill="white"/>
</svg>
