<svg viewBox="0 0 19 23" fill="none" xmlns="http://www.w3.org/2000/svg">
<path d="M18.4883 15.6655C18.4072 15.5679 18.3276 15.4702 18.2495 15.376C17.1753 14.0767 16.5254 13.2925 16.5254 9.61426C16.5254 7.70996 16.0698 6.14746 15.1718 4.97559C14.5097 4.10986 13.6147 3.45312 12.435 2.96777C12.4198 2.95933 12.4063 2.94825 12.395 2.93506C11.9707 1.51416 10.8095 0.5625 9.49997 0.5625C8.1904 0.5625 7.02976 1.51416 6.60544 2.93359C6.59412 2.9463 6.58075 2.95703 6.56589 2.96533C3.81296 4.09863 2.47507 6.27295 2.47507 9.61279C2.47507 13.2925 1.82614 14.0767 0.750949 15.3745C0.672824 15.4688 0.593234 15.5645 0.512179 15.6641C0.302805 15.9166 0.170149 16.2238 0.129911 16.5493C0.0896726 16.8748 0.143537 17.2051 0.285129 17.501C0.586398 18.1357 1.22849 18.5298 1.9614 18.5298H17.0439C17.7734 18.5298 18.4111 18.1362 18.7134 17.5044C18.8556 17.2084 18.9099 16.8779 18.87 16.552C18.8301 16.2261 18.6976 15.9184 18.4883 15.6655ZM9.49997 22.4375C10.2056 22.4369 10.8978 22.2454 11.5034 21.8832C12.1089 21.5211 12.6051 21.0017 12.9394 20.3804C12.9552 20.3506 12.963 20.3172 12.962 20.2836C12.9611 20.2499 12.9514 20.217 12.934 20.1882C12.9166 20.1594 12.8921 20.1355 12.8627 20.1189C12.8334 20.1024 12.8003 20.0937 12.7666 20.0938H6.23435C6.20062 20.0936 6.16744 20.1022 6.13803 20.1188C6.10862 20.1353 6.08399 20.1591 6.06654 20.188C6.04908 20.2168 6.0394 20.2497 6.03843 20.2835C6.03746 20.3172 6.04524 20.3506 6.06101 20.3804C6.39525 21.0017 6.8914 21.5209 7.49685 21.8831C8.1023 22.2453 8.79447 22.4368 9.49997 22.4375Z" fill="white"/>
</svg>
