<svg viewBox="0 0 51 37" fill="none" xmlns="http://www.w3.org/2000/svg">
    <path d="M43.3418 21.862C43.0911 21.862 42.8425 21.8746 42.5961 21.8978L35.6063 1.14986C35.4935 0.815002 35.2771 0.523758 34.9877 0.317385C34.6983 0.111012 34.3506 -2.61551e-05 33.9938 4.62121e-09H27.1953C26.7445 4.62121e-09 26.3122 0.177178 25.9935 0.492557C25.6747 0.807936 25.4957 1.23568 25.4957 1.6817C25.4957 2.12771 25.6747 2.55545 25.9935 2.87083C26.3122 3.18621 26.7445 3.36339 27.1953 3.36339H32.768L36.4732 14.3596L24.6905 28.5888H15.249C15.0395 26.7408 14.1497 25.0339 12.7493 23.7936C11.349 22.5534 9.5361 21.8668 7.65669 21.8647C5.77729 21.8627 3.96292 22.5454 2.55982 23.7826C1.15672 25.0198 0.263124 26.7249 0.0495592 28.5724C-0.164006 30.4199 0.31741 32.2806 1.40194 33.7993C2.48647 35.318 4.09818 36.3885 5.92951 36.8064C7.76085 37.2243 9.68358 36.9604 11.3308 36.0651C12.978 35.1698 14.2344 33.7057 14.8602 31.9522H25.4957C25.7473 31.9523 25.9958 31.897 26.2232 31.7905C26.4506 31.684 26.6513 31.5289 26.8108 31.3363L37.7436 18.1329L39.371 22.9678C37.7929 23.9195 36.6165 25.4044 36.0592 27.148C35.502 28.8915 35.6017 30.7757 36.3398 32.4522C37.078 34.1286 38.4047 35.4839 40.0746 36.2674C41.7445 37.051 43.6446 37.2097 45.4237 36.7143C47.2027 36.2189 48.7403 35.1029 49.752 33.5726C50.7638 32.0423 51.1814 30.2013 50.9275 28.39C50.6736 26.5787 49.7654 24.9197 48.3709 23.7196C46.9764 22.5195 45.1899 21.8597 43.3418 21.862ZM7.64955 33.6339C6.80917 33.6339 5.98765 33.3873 5.28889 32.9254C4.59014 32.4634 4.04552 31.8068 3.72392 31.0386C3.40232 30.2703 3.31817 29.425 3.48212 28.6095C3.64608 27.7939 4.05076 27.0448 4.645 26.4568C5.23925 25.8688 5.99636 25.4684 6.8206 25.3062C7.64484 25.144 8.49919 25.2272 9.2756 25.5455C10.052 25.8637 10.7156 26.4025 11.1825 27.0939C11.6494 27.7853 11.8986 28.5981 11.8986 29.4297C11.8986 29.9818 11.7887 30.5285 11.5752 31.0386C11.3617 31.5486 11.0487 32.0121 10.6541 32.4025C10.2595 32.7929 9.79113 33.1026 9.2756 33.3139C8.76008 33.5252 8.20755 33.6339 7.64955 33.6339ZM43.3418 33.6339C42.5014 33.6339 41.6799 33.3873 40.9811 32.9254C40.2824 32.4634 39.7378 31.8068 39.4161 31.0386C39.0945 30.2703 39.0104 29.425 39.1744 28.6095C39.3383 27.7939 39.743 27.0448 40.3372 26.4568C40.9315 25.8688 41.6886 25.4684 42.5128 25.3062C43.3371 25.144 44.1914 25.2272 44.9678 25.5455C45.7443 25.8637 46.4079 26.4025 46.8748 27.0939C47.3417 27.7853 47.5909 28.5981 47.5909 29.4297C47.5909 29.9818 47.4809 30.5285 47.2674 31.0386C47.0539 31.5486 46.7409 32.0121 46.3463 32.4025C45.9518 32.7929 45.4834 33.1026 44.9678 33.3139C44.4523 33.5252 43.8998 33.6339 43.3418 33.6339Z"
          fill="black"/>
</svg>
